<svg width="20" height="21" viewBox="0 0 20 21" fill="none" xmlns="http://www.w3.org/2000/svg">
<path d="M19 5.9375C17.7573 5.93601 16.5658 5.44167 15.6871 4.56292C14.8083 3.68416 14.314 2.49275 14.3125 1.25C14.3125 1.10082 14.2532 0.957742 14.1477 0.852252C14.0423 0.746763 13.8992 0.6875 13.75 0.6875H10C9.85082 0.6875 9.70774 0.746763 9.60225 0.852252C9.49676 0.957742 9.4375 1.10082 9.4375 1.25V13.625C9.43727 13.994 9.33803 14.3563 9.15013 14.6739C8.96223 14.9915 8.69255 15.2529 8.36921 15.4308C8.04588 15.6087 7.68074 15.6966 7.31187 15.6853C6.943 15.674 6.58392 15.5639 6.27208 15.3666C5.96023 15.1692 5.70705 14.8918 5.53894 14.5633C5.37082 14.2348 5.29393 13.8672 5.31629 13.4988C5.33864 13.1304 5.45943 12.7748 5.66604 12.469C5.87265 12.1632 6.15752 11.9185 6.49094 11.7603C6.58712 11.7147 6.6684 11.6428 6.72532 11.5528C6.78224 11.4629 6.81247 11.3586 6.8125 11.2522V7.25C6.81242 7.16825 6.79451 7.08749 6.76004 7.01336C6.72556 6.93923 6.67534 6.87351 6.61287 6.82077C6.55041 6.76803 6.47719 6.72954 6.39833 6.70798C6.31947 6.68642 6.23686 6.68231 6.15625 6.69594C2.89375 7.27625 0.4375 10.2547 0.4375 13.625C0.4375 15.4649 1.16841 17.2295 2.46945 18.5306C3.77048 19.8316 5.53506 20.5625 7.375 20.5625C9.21494 20.5625 10.9795 19.8316 12.2806 18.5306C13.5816 17.2295 14.3125 15.4649 14.3125 13.625V9.58719C15.7428 10.3941 17.3578 10.8163 19 10.8125C19.1492 10.8125 19.2923 10.7532 19.3977 10.6477C19.5032 10.5423 19.5625 10.3992 19.5625 10.25V6.5C19.5625 6.35082 19.5032 6.20774 19.3977 6.10225C19.2923 5.99676 19.1492 5.9375 19 5.9375ZM18.4375 9.66875C16.866 9.56839 15.3548 9.02598 14.0781 8.10406C13.994 8.04362 13.8948 8.0076 13.7914 7.99997C13.6881 7.99234 13.5847 8.01339 13.4926 8.06081C13.4004 8.10823 13.3232 8.18017 13.2694 8.26869C13.2155 8.35722 13.1872 8.45889 13.1875 8.5625V13.625C13.1875 15.1666 12.5751 16.645 11.4851 17.7351C10.395 18.8251 8.91657 19.4375 7.375 19.4375C5.83343 19.4375 4.355 18.8251 3.26494 17.7351C2.17489 16.645 1.5625 15.1666 1.5625 13.625C1.5625 11.0262 3.29406 8.705 5.6875 7.96438V10.9203C5.21677 11.2141 4.83088 11.6256 4.56798 12.1142C4.30509 12.6029 4.1743 13.1517 4.18855 13.7064C4.20281 14.261 4.36161 14.8024 4.64925 15.2769C4.93689 15.7514 5.34341 16.1425 5.82861 16.4117C6.3138 16.6809 6.86086 16.8188 7.41568 16.8117C7.9705 16.8046 8.51386 16.6528 8.99203 16.3714C9.47019 16.0899 9.8666 15.6884 10.142 15.2068C10.4175 14.7251 10.5624 14.1799 10.5625 13.625V1.8125H13.2147C13.3466 3.15287 13.9392 4.40602 14.8916 5.35839C15.844 6.31075 17.0971 6.90339 18.4375 7.03531V9.66875Z" fill="black"/>
</svg>
