<svg width="68" height="88" viewBox="0 0 68 88" fill="none" xmlns="http://www.w3.org/2000/svg">
<path d="M67.076 48.2502C67.076 49.0384 67.1486 49.8355 67.0583 50.6131C66.936 51.6688 66.7412 52.7227 66.4808 53.7518C66.2878 54.517 65.9866 55.2627 65.6519 55.9801C65.3879 56.5452 65.0018 57.0553 64.667 57.5867C64.3783 58.0472 64.1197 58.5308 63.7867 58.9559C63.4324 59.4076 63.0144 59.8097 62.607 60.2171C62.2775 60.5465 61.9428 60.876 61.5779 61.1647C61.1156 61.5296 60.6107 61.8378 60.1413 62.1938C59.7853 62.4649 59.4505 62.766 59.114 63.0618C58.4055 63.6782 57.6757 64.2734 57.0008 64.9252C56.2427 65.6567 55.5023 66.4149 54.815 67.2137C54.358 67.7451 53.9825 68.3544 53.6106 68.9531C53.1252 69.736 52.6399 70.5225 52.2307 71.3462C51.8198 72.168 51.4708 73.0236 51.1538 73.888C50.9182 74.531 50.7446 75.2005 50.6064 75.8718C50.4647 76.568 50.3886 77.2782 50.3035 77.985C50.2238 78.6492 50.1016 79.317 50.1175 79.9813C50.1353 80.7465 50.2433 81.517 50.3868 82.2715C50.5125 82.934 50.7145 83.5858 50.9323 84.2253C51.1166 84.7691 51.3699 85.2898 51.5984 85.8177C51.7046 86.0639 51.2104 86.9885 50.9536 87.1391C50.408 87.4597 49.8873 87.4703 49.3665 87.1249C49.216 87.0257 49.0672 86.8946 48.9768 86.7423C48.6084 86.1223 48.286 85.4723 47.8999 84.8647C47.5297 84.2837 47.163 83.6797 46.6812 83.1979C46.1782 82.6967 45.5529 82.3123 44.9577 81.9102C44.5503 81.6339 44.1164 81.3877 43.6736 81.1751C43.3547 81.0228 43.004 80.9254 42.6568 80.8421C41.8881 80.6561 41.114 80.4914 40.3417 80.3213C40.2549 80.3019 40.1628 80.2948 40.0743 80.2948C38.9052 80.2948 37.7344 80.2611 36.5671 80.3054C35.646 80.3408 34.7285 80.5144 33.8074 80.5392C33.2725 80.5534 32.8987 80.1849 32.7216 79.6677C32.6224 79.379 32.5144 79.0867 32.4648 78.7874C32.3372 78.0364 32.9554 77.6856 33.3664 77.2464C33.772 76.8159 34.2414 76.4475 34.6824 76.049C35.1802 75.5991 35.6938 75.1669 36.165 74.6904C36.5175 74.3343 36.8115 73.9216 37.1321 73.5337C37.559 73.0183 38.0036 72.517 38.4092 71.9856C38.7458 71.5445 39.0416 71.0716 39.3498 70.6075C39.6332 70.1806 39.9131 69.7502 40.1876 69.3162C40.4569 68.8911 40.7226 68.4643 40.9759 68.0303C41.3337 67.4156 41.6986 66.8028 42.0245 66.1704C42.2565 65.717 42.4212 65.2299 42.632 64.764C42.8712 64.2362 43.1262 63.7154 43.3724 63.1893C43.4787 62.9644 43.5992 62.7412 43.6753 62.5056C43.7993 62.123 43.8684 61.7244 44.0012 61.3454C44.2333 60.6776 44.4972 60.0187 44.7416 59.3562C44.8497 59.064 44.9613 58.7699 45.0463 58.4706C45.1632 58.0579 45.2465 57.6345 45.3581 57.22C45.5193 56.6266 45.6982 56.0403 45.8593 55.447C45.9638 55.0644 46.0701 54.68 46.1445 54.2903C46.2685 53.6349 46.3535 52.9725 46.4828 52.3188C46.6263 51.5944 46.8034 50.8752 46.9664 50.1543C46.977 50.11 46.9965 50.0675 47.0001 50.0232C47.101 49.0295 47.2073 48.0358 47.3012 47.0404C47.4039 45.9546 47.3561 44.8298 47.6306 43.7883C48.0186 42.3075 47.6306 40.816 47.8892 39.3653C48.3622 36.7066 48.0416 34.039 48.0841 31.3785C48.1142 29.5523 47.9406 27.7226 47.8273 25.8963C47.7653 24.9026 47.643 23.9107 47.5456 22.9188C47.4571 22.0207 47.372 21.1227 47.2728 20.2246C47.1896 19.463 47.0939 18.7013 46.9912 17.9414C46.9026 17.279 46.807 16.6183 46.7025 15.9593C46.5289 14.8611 46.35 13.7647 46.1622 12.67C45.9833 11.6285 45.7885 10.5905 45.6043 9.55078C45.4271 8.55 45.2057 7.55453 45.0941 6.54666C45.0215 5.89836 45.5936 5.45908 46.1764 5.19693C46.7344 4.94717 47.1772 5.00031 47.6271 5.28549C47.907 5.46262 48.162 5.70706 48.364 5.97098C48.743 6.46518 49.0867 6.98948 49.425 7.51379C49.8483 8.17094 50.238 8.84935 50.6684 9.50119C50.9625 9.94755 51.3185 10.355 51.6143 10.8013C51.8605 11.1733 52.0465 11.586 52.2839 11.9668C52.4964 12.3105 52.7515 12.6258 52.9711 12.9659C53.2032 13.3219 53.4139 13.6903 53.6353 14.0534C53.855 14.413 54.0729 14.7708 54.2943 15.1286C54.5334 15.5165 54.7761 15.9027 55.0134 16.2906C55.226 16.636 55.4314 16.9849 55.6475 17.3286C55.8867 17.7112 56.1435 18.0831 56.372 18.4728C56.6908 19.0166 56.9955 19.5693 57.2949 20.1255C57.5535 20.6055 57.789 21.0997 58.053 21.5761C58.2425 21.918 58.471 22.2386 58.6694 22.5752C58.827 22.8426 58.9723 23.1172 59.1175 23.3917C59.3655 23.8576 59.6099 24.327 59.8579 24.7946C59.966 24.9983 60.0882 25.1967 60.1856 25.4075C60.4903 26.0664 60.7719 26.7359 61.0872 27.3896C61.3936 28.0237 61.7408 28.6366 62.0508 29.2689C62.2014 29.5736 62.3041 29.9013 62.4369 30.2148C62.6406 30.6966 62.8497 31.1748 63.0604 31.6531C63.2039 31.979 63.3793 32.2925 63.498 32.6255C63.7141 33.2331 63.877 33.8601 64.1055 34.4624C64.3216 35.0327 64.6015 35.5783 64.8353 36.1416C64.9487 36.4126 65.0301 36.696 65.1098 36.9794C65.2285 37.3992 65.3242 37.8261 65.4464 38.2423C65.5881 38.7188 65.7493 39.19 65.9016 39.6629C65.9211 39.7231 65.953 39.7798 65.9636 39.84C66.0752 40.4334 66.1921 41.025 66.2948 41.6202C66.4844 42.7219 66.6898 43.8219 66.8457 44.929C66.9998 46.029 67.0972 47.1342 67.2212 48.2378C67.1752 48.2413 67.1291 48.2449 67.0831 48.2484L67.076 48.2502ZM64.3057 48.2856C64.2897 48.2856 64.2738 48.2856 64.2578 48.2856C64.2578 47.4796 64.3216 46.6684 64.2419 45.8713C64.1516 44.9697 63.9337 44.0823 63.769 43.1878C63.6609 42.5962 63.5564 42.0028 63.4342 41.4129C63.3545 41.025 63.2677 40.6353 63.1472 40.2581C62.9117 39.5159 62.6442 38.7843 62.4068 38.0422C62.274 37.6241 62.1854 37.1937 62.0614 36.7739C61.9729 36.4728 61.8666 36.1752 61.7515 35.8812C61.507 35.263 61.2484 34.6519 61.0022 34.0337C60.8764 33.7184 60.7772 33.3925 60.6426 33.0825C60.4106 32.544 60.1537 32.0144 59.9164 31.4777C59.7091 31.0083 59.5267 30.5248 59.3071 30.0624C59.0768 29.5807 58.7951 29.1219 58.5684 28.6383C58.3293 28.1317 58.1575 27.5933 57.906 27.0937C57.3941 26.0823 56.852 25.0851 56.3118 24.0879C56.186 23.854 56.0178 23.6415 55.8814 23.4112C55.6653 23.0463 55.4492 22.6814 55.2525 22.3077C55.0311 21.8826 54.854 21.4327 54.6149 21.0182C54.2996 20.4691 53.9365 19.9501 53.607 19.4081C53.3732 19.0219 53.1713 18.6163 52.9375 18.2319C52.7196 17.8706 52.4734 17.5252 52.2466 17.1691C51.9969 16.7759 51.756 16.3756 51.5098 15.9788C51.2937 15.6334 51.0687 15.2933 50.858 14.9444C50.6383 14.5795 50.4382 14.2058 50.2167 13.8409C49.9705 13.437 49.7172 13.0367 49.4569 12.6435C49.3453 12.4734 49.2036 12.3246 49.0742 12.1652C49.0371 12.3388 48.9449 12.5195 48.9715 12.6824C49.1185 13.5716 49.3045 14.4537 49.4569 15.3412C49.5702 16.0089 49.6588 16.6803 49.7473 17.3516C49.8483 18.1133 49.9457 18.8749 50.0308 19.6383C50.1299 20.5275 50.2167 21.4185 50.3035 22.3077C50.3956 23.2607 50.5001 24.2136 50.5657 25.1701C50.6737 26.7413 50.8332 28.3142 50.8278 29.8853C50.8154 33.396 50.7322 36.9068 50.6383 40.4175C50.6011 41.8079 50.4718 43.1966 50.362 44.5836C50.2982 45.3931 50.1973 46.2008 50.1016 47.0067C50.013 47.7507 49.9245 48.4946 49.8111 49.2332C49.6446 50.3208 49.471 51.4084 49.2709 52.4889C49.1044 53.3869 48.9042 54.2779 48.7005 55.1689C48.5322 55.9075 48.3551 56.6444 48.1514 57.3759C47.8963 58.2917 47.6236 59.2021 47.3384 60.109C47.0798 60.9309 46.7946 61.7457 46.5218 62.564C46.3199 63.1716 46.1268 63.7845 45.9142 64.3885C45.8239 64.6436 45.7017 64.888 45.583 65.1324C45.3457 65.6231 45.0977 66.1084 44.8603 66.5991C44.6053 67.1216 44.3644 67.6512 44.104 68.172C43.8967 68.5882 43.6753 68.9974 43.4504 69.4048C43.3193 69.6439 43.174 69.8777 43.027 70.108C42.8145 70.441 42.5895 70.7652 42.3823 71.0999C42.1414 71.4861 41.9306 71.8935 41.6738 72.269C41.486 72.5453 41.2309 72.7756 41.0325 73.0466C40.6783 73.5302 40.363 74.0438 39.9946 74.515C39.736 74.8462 39.4047 75.119 39.1284 75.4379C38.62 76.0206 38.1276 76.6158 37.6281 77.2074C37.5714 77.2747 37.5112 77.342 37.4527 77.4093C37.5502 77.4394 37.6458 77.4908 37.745 77.4961C39.2488 77.5971 40.7545 77.6768 42.2565 77.799C42.6462 77.8309 43.0359 77.9602 43.4061 78.0984C44.0314 78.3322 44.6513 78.5908 45.2553 78.8742C45.8434 79.1505 46.412 79.4693 46.9877 79.774C47.0709 79.8183 47.14 79.8838 47.2162 79.9405C47.2427 79.8325 47.2906 79.7244 47.2941 79.6146C47.3171 78.9716 47.2764 78.3233 47.3614 77.6892C47.4677 76.885 47.6749 76.0968 47.8326 75.2997C47.9442 74.7329 48.0292 74.159 48.1549 73.5957C48.2258 73.2822 48.3462 72.9793 48.4685 72.6799C48.7076 72.0883 48.9556 71.5003 49.2124 70.9175C49.4073 70.4747 49.6003 70.0283 49.8341 69.6067C50.0432 69.2277 50.3106 68.8841 50.5427 68.5174C50.8951 67.9594 51.2193 67.3838 51.593 66.84C51.8446 66.4769 52.1616 66.1598 52.4468 65.8179C52.8577 65.3237 53.2457 64.8083 53.6796 64.3353C54.1685 63.8022 54.6946 63.3009 55.2136 62.7979C55.8229 62.208 56.4216 61.6022 57.0664 61.0549C57.5924 60.6085 58.1929 60.249 58.742 59.8274C59.2734 59.4218 59.7977 59.0037 60.2954 58.5574C60.7312 58.1677 61.1616 57.7621 61.5265 57.3086C61.8808 56.8675 62.1518 56.3574 62.4564 55.8738C62.5822 55.6737 62.7186 55.4771 62.8178 55.2645C63.0463 54.7756 63.2872 54.2885 63.4661 53.7802C63.6219 53.3356 63.7105 52.8679 63.8132 52.4056C63.9833 51.6422 64.187 50.8805 64.288 50.1065C64.3641 49.5096 64.3039 48.8949 64.3039 48.2874L64.3057 48.2856Z" fill="white"/>
<path d="M46.2151 26.9539C46.2151 28.0876 46.2505 29.2212 46.2063 30.3513C46.1496 31.7612 46.038 33.1694 45.9264 34.5758C45.8662 35.3216 45.7634 36.0637 45.6642 36.8041C45.5757 37.4737 45.4853 38.1432 45.3684 38.8075C45.2019 39.748 45.0177 40.6851 44.8246 41.6203C44.6546 42.4422 44.4722 43.2605 44.2738 44.0753C44.109 44.752 43.916 45.4251 43.7247 46.0946C43.5475 46.7146 43.3828 47.3398 43.1614 47.9439C42.9506 48.5248 42.6566 49.0757 42.4352 49.6532C42.2917 50.0251 42.2332 50.4272 42.1004 50.8027C41.9835 51.1304 41.8064 51.4369 41.67 51.7592C41.5353 52.0781 41.4273 52.4075 41.2909 52.7246C41.0411 53.3109 40.7808 53.8919 40.5204 54.4729C40.3167 54.9263 40.1254 55.3851 39.8933 55.8244C39.5851 56.4036 39.238 56.9633 38.9156 57.5372C38.6924 57.9375 38.5064 58.3591 38.2655 58.7488C37.9467 59.266 37.5836 59.7549 37.2559 60.2668C37.0221 60.6317 36.8325 61.0231 36.597 61.3863C36.3118 61.8273 36.0053 62.256 35.6971 62.6829C35.4669 63.0017 35.2277 63.317 34.9762 63.6216C34.4572 64.2505 33.9258 64.8686 33.4015 65.4921C32.9994 65.9704 32.6186 66.4681 32.197 66.9269C31.6285 67.5451 31.0368 68.142 30.4417 68.7354C30.1229 69.056 29.7898 69.366 29.4427 69.6547C28.6792 70.2906 27.9052 70.9141 27.1311 71.5376C26.5342 72.0211 25.9444 72.5136 25.3279 72.9723C24.956 73.2487 24.5344 73.4594 24.1483 73.7163C23.7054 74.0121 23.2821 74.338 22.8357 74.6285C22.5753 74.7968 22.2831 74.9172 22.0067 75.0642C21.5657 75.3016 21.1264 75.5407 20.6871 75.7816C20.4852 75.8914 20.2886 76.0119 20.0867 76.1182C19.4702 76.4441 18.7901 76.6513 18.1453 76.3839C17.8141 76.2457 17.4687 75.7923 17.4102 75.4362C17.3482 75.0589 17.5218 74.5488 17.7698 74.237C18.3083 73.5586 19.0009 73.0343 19.3533 72.1735C19.6084 71.55 19.8546 70.9708 19.8776 70.2835C19.9095 69.3004 20.0725 68.3227 20.0867 67.3396C20.0937 66.7586 19.9485 66.1688 19.821 65.5949C19.6633 64.8899 19.4986 64.1778 19.2488 63.5012C18.9637 62.7236 18.5828 61.9796 18.2445 61.2198C18.0373 60.7557 17.8619 60.2739 17.6175 59.8311C17.3199 59.2908 16.9674 58.7824 16.6362 58.2617C16.4325 57.9411 16.2341 57.6169 16.0215 57.3034C15.8054 56.9828 15.584 56.6622 15.3467 56.3558C14.833 55.6933 14.3158 55.0326 13.7844 54.3825C13.4974 54.0318 13.1502 53.7272 12.8775 53.3658C12.5976 52.9938 12.362 52.5882 12.1317 52.1826C11.8767 51.7344 11.6376 51.2739 11.4126 50.8098C11.2798 50.5353 11.1611 50.2483 11.0849 49.9543C10.9609 49.476 10.8334 48.9925 10.782 48.5036C10.6775 47.5081 10.5712 46.5073 10.5641 45.5083C10.5588 44.7626 10.6722 44.0098 10.8015 43.2729C10.945 42.4528 11.1345 41.6362 11.3648 40.8339C11.5986 40.0137 11.8749 39.2025 12.1884 38.4089C12.486 37.6561 12.8544 36.9317 13.1892 36.193C13.4903 35.5288 13.7631 34.8504 14.0943 34.2021C14.4079 33.5857 14.7798 32.9994 15.127 32.3989C15.5008 31.7542 15.855 31.097 16.2553 30.4682C16.6716 29.8128 17.1339 29.1875 17.5732 28.5463C17.9646 27.976 18.3331 27.3879 18.7476 26.8335C19.1514 26.2932 19.6066 25.7902 20.0282 25.2606C20.34 24.8673 20.618 24.4493 20.9333 24.0596C21.4258 23.4521 21.9501 22.8711 22.4354 22.2582C22.8747 21.7038 23.2679 21.1157 23.7019 20.556C23.9782 20.1982 24.2935 19.8723 24.5858 19.5269C24.9241 19.1283 25.2589 18.728 25.5901 18.3259C26.0205 17.8034 26.4527 17.2809 26.8725 16.7512C27.1825 16.3598 27.4677 15.9471 27.7776 15.5556C28.1939 15.0313 28.635 14.5265 29.0459 13.9969C29.4799 13.4354 29.8784 12.8438 30.3142 12.2822C30.5834 11.9351 30.9005 11.6251 31.1839 11.2885C31.5222 10.8865 31.8446 10.4702 32.1793 10.0646C32.6842 9.45171 33.2049 8.85301 33.6938 8.22951C34.1313 7.67155 34.5316 7.08525 34.9585 6.51844C35.1339 6.28462 35.3376 6.0703 35.5218 5.84003C35.791 5.50171 36.0443 5.14745 36.3224 4.81622C36.8343 4.20866 37.3692 3.62236 37.8741 3.00949C38.1079 2.72431 38.2744 2.38422 38.5046 2.09373C38.9687 1.5092 39.3761 0.837874 39.9536 0.391506C40.7613 -0.23022 41.7674 -0.123942 42.3696 0.786506C42.6725 1.2435 42.754 1.84929 42.9276 2.38953C43.0923 2.90321 43.2464 3.4222 43.4058 3.93765C43.4129 3.96245 43.4306 3.98725 43.4359 4.01205C43.5422 4.5948 43.629 5.1811 43.7548 5.76032C43.9053 6.45644 44.0896 7.14548 44.2578 7.83806C44.2649 7.86462 44.272 7.89119 44.2755 7.91776C44.3818 8.66702 44.4668 9.4216 44.5997 10.1655C44.7272 10.8776 44.9026 11.5808 45.0585 12.2876C45.0638 12.3141 45.0744 12.3407 45.0762 12.3673C45.1878 13.3362 45.3082 14.3051 45.4074 15.2757C45.5172 16.3527 45.6076 17.4332 45.7068 18.5119C45.7918 19.4454 45.891 20.3789 45.9583 21.3141C46.0929 23.1899 46.208 25.0675 46.332 26.9451C46.2913 26.9468 46.2523 26.9504 46.2116 26.9522L46.2151 26.9539ZM43.4324 26.8671C43.4731 26.8636 43.5121 26.8618 43.5529 26.8583C43.4342 25.5245 43.3066 24.1907 43.1986 22.8551C43.0941 21.555 43.0215 20.2513 42.9152 18.9512C42.8426 18.0673 42.7451 17.1852 42.6424 16.3049C42.5645 15.6371 42.4653 14.9729 42.3714 14.3086C42.2846 13.6904 42.2031 13.0723 42.0986 12.4576C41.9268 11.4409 41.7479 10.4259 41.5584 9.41451C41.3866 8.49521 41.1864 7.58122 41.0181 6.66191C40.887 5.94276 40.7914 5.2183 40.6603 4.49915C40.6497 4.44424 40.4318 4.36099 40.4141 4.38048C39.9571 4.90124 39.5178 5.43794 39.0679 5.96225C38.8217 6.2492 38.5401 6.50781 38.308 6.80539C37.8546 7.38106 37.4348 7.9833 36.9796 8.5572C36.7085 8.90084 36.3791 9.19664 36.1098 9.54205C35.6582 10.1195 35.2472 10.7253 34.7955 11.3027C34.521 11.6534 34.1809 11.9546 33.9063 12.3053C33.3909 12.966 32.9162 13.6603 32.3972 14.3192C31.8977 14.9534 31.361 15.5592 30.8473 16.1809C30.5922 16.4891 30.3549 16.8097 30.0963 17.1161C29.8253 17.4367 29.5224 17.7325 29.2638 18.062C28.805 18.6465 28.3763 19.2576 27.9176 19.8439C27.6448 20.1911 27.3224 20.5011 27.0496 20.8483C26.5997 21.4186 26.1799 22.0138 25.7283 22.5841C25.4537 22.9331 25.1278 23.2413 24.8532 23.5902C24.4069 24.1606 23.9941 24.7575 23.5442 25.3243C23.2661 25.6768 22.9278 25.9815 22.6515 26.3358C22.2069 26.9043 21.796 27.4977 21.3602 28.0734C20.9652 28.5959 20.5419 29.099 20.1575 29.6286C19.8015 30.1175 19.4756 30.6294 19.1426 31.136C18.9282 31.4601 18.7157 31.7878 18.5191 32.1226C18.2976 32.4999 18.0922 32.8878 17.8814 33.2722C17.7822 33.4528 17.6883 33.6371 17.5838 33.8142C17.2597 34.3615 16.9125 34.8964 16.6114 35.458C16.3705 35.9079 16.1809 36.3843 15.9737 36.852C15.7098 37.4418 15.4458 38.0317 15.1926 38.6268C15.0632 38.9297 14.9587 39.2415 14.8436 39.5497C14.6877 39.9695 14.5177 40.3839 14.3831 40.8108C14.2573 41.2076 14.1705 41.6168 14.0678 42.0206C13.8995 42.6831 13.5913 43.3456 13.5931 44.0063C13.6002 45.6536 13.2618 47.3257 13.8198 48.95C13.9544 49.3432 14.0164 49.7612 14.1439 50.158C14.2166 50.3829 14.3317 50.6061 14.4734 50.7939C14.8879 51.3412 15.3236 51.8708 15.7541 52.4058C16.1455 52.8929 16.5387 53.3782 16.932 53.8635C17.3659 54.3985 17.8194 54.9175 18.2268 55.4701C18.473 55.8031 18.6377 56.1946 18.8556 56.5488C19.1886 57.0909 19.55 57.6169 19.8723 58.166C20.092 58.5415 20.2656 58.9454 20.4586 59.3351C20.7172 59.8594 21.0095 60.3713 21.2256 60.9133C21.4683 61.5244 21.6436 62.1621 21.8456 62.7891C22.0953 63.5614 22.3734 64.3266 22.5807 65.1113C22.7241 65.6586 22.8269 66.2308 22.8446 66.794C22.8835 67.9702 22.8694 69.1481 22.8446 70.3242C22.8375 70.6254 22.7064 70.9229 22.6426 71.2241C22.632 71.2719 22.6852 71.3321 22.7082 71.387C22.7525 71.3551 22.8003 71.325 22.8428 71.2914C23.3494 70.9017 23.8489 70.5031 24.3661 70.1276C24.9383 69.7114 25.5564 69.3536 26.102 68.9054C26.6777 68.4325 27.1878 67.8834 27.7298 67.3679C28.3941 66.7374 29.0725 66.1192 29.7225 65.4744C30.0963 65.1042 30.4275 64.6897 30.7782 64.2983C31.1449 63.8909 31.5381 63.503 31.8747 63.0725C32.3086 62.5163 32.693 61.9212 33.1075 61.3491C33.6194 60.6423 34.1526 59.9515 34.6485 59.2341C34.9691 58.7718 35.2348 58.2705 35.5359 57.7941C35.8725 57.2609 36.2551 56.7561 36.5544 56.2034C36.8892 55.5835 37.1496 54.9246 37.4472 54.2851C37.5446 54.0761 37.658 53.8742 37.7589 53.6652C38.0069 53.1586 38.2602 52.6537 38.4976 52.1418C38.6428 51.8283 38.7579 51.5024 38.8961 51.1853C39.0272 50.886 39.1955 50.6008 39.307 50.2944C39.4505 49.8976 39.5355 49.4796 39.6808 49.0846C39.9979 48.2273 40.3822 47.393 40.6568 46.525C40.9189 45.6908 41.0748 44.8228 41.2803 43.9691C41.3777 43.567 41.4787 43.1649 41.5832 42.7646C41.8347 41.8063 42.1039 40.8516 42.336 39.888C42.4582 39.3778 42.5255 38.8553 42.6087 38.3363C42.7062 37.7376 42.8089 37.1371 42.8833 36.5349C42.9878 35.6776 43.0888 34.8203 43.1561 33.9594C43.2624 32.6026 43.3669 31.244 43.4235 29.8837C43.4661 28.8793 43.4324 27.8715 43.4324 26.8671Z" fill="white"/>
<path d="M8.20313 70.365C8.60167 70.365 9.01261 70.3048 9.39698 70.3792C9.91243 70.4802 10.4739 70.59 10.8973 70.8734C11.5208 71.2897 12.0628 71.8405 12.5924 72.379C12.7873 72.5774 12.9431 72.9069 12.9502 73.1796C12.9768 74.1857 12.9768 75.1954 12.8988 76.1979C12.867 76.6195 12.6473 77.0393 12.4613 77.4361C12.2629 77.8594 12.0309 78.2739 11.767 78.6583C11.4783 79.0781 11.1913 79.5298 10.8052 79.845C10.3163 80.2436 9.74416 80.5553 9.17203 80.8317C8.8284 80.9964 8.421 81.0478 8.03662 81.1009C7.34227 81.1948 6.36452 80.0966 6.69398 79.342C6.93133 78.7947 7.28736 78.3288 7.97463 78.32C8.359 78.3146 9.29956 77.5459 9.43064 77.1881C9.60954 76.7045 9.94963 76.2777 10.1214 75.7923C10.2419 75.4487 10.1817 75.0448 10.2348 74.6746C10.3234 74.0671 10.1374 73.587 9.63079 73.2416C9.54931 73.1867 9.42887 73.1637 9.32613 73.1637C8.57333 73.1584 7.80813 73.0716 7.07481 73.1885C6.34326 73.3054 5.60286 73.5516 4.9457 73.8917C4.38952 74.1804 3.93429 74.6711 3.46313 75.105C3.31256 75.2432 3.224 75.4735 3.15492 75.6772C2.79357 76.747 2.75638 77.8559 2.89454 78.9559C2.96893 79.5422 3.15315 80.1444 3.42239 80.6705C3.97326 81.7403 4.4338 82.9005 5.50189 83.5967C6.10945 83.9917 6.7418 84.3636 7.40073 84.6612C8.49008 85.1554 9.66622 85.29 10.8441 85.1749C11.6076 85.1005 12.3551 84.8631 13.1079 84.6913C13.5029 84.601 13.9067 84.5248 14.2822 84.3814C15.1555 84.0501 16.0181 83.687 16.8807 83.3292C17.3608 83.129 17.8443 82.9324 18.3084 82.6986C18.652 82.5268 18.9673 82.2965 19.2932 82.0928C19.5324 81.944 19.7733 81.797 20.0071 81.6411C20.5119 81.3028 21.0132 80.9557 21.5162 80.6156C21.975 80.3074 22.4462 80.0186 22.8925 79.6927C23.2698 79.4164 23.6188 79.0993 23.9801 78.7982C24.8516 78.0755 25.7408 77.3705 26.591 76.6213C27.1153 76.159 27.5776 75.6258 28.07 75.1263C28.6528 74.5382 29.248 73.9608 29.8201 73.3621C30.1708 72.9937 30.4825 72.5898 30.8209 72.209C31.207 71.7732 31.6091 71.3517 31.9952 70.9141C32.2414 70.6343 32.4664 70.3349 32.7073 70.0498C32.9996 69.7026 33.306 69.3678 33.5894 69.0135C34.0482 68.4379 34.4821 67.8445 34.9427 67.2706C35.4989 66.5798 36.0072 65.827 36.6697 65.2566C36.9159 65.0441 37.5943 65.1539 37.9751 65.331C38.294 65.4798 38.5827 65.912 38.6713 66.2716C38.751 66.5922 38.6128 67.0297 38.4339 67.3379C38.1682 67.7949 37.7856 68.1828 37.4491 68.5973C37.0222 69.1234 36.5864 69.6406 36.1613 70.1684C35.8549 70.551 35.5733 70.9549 35.2597 71.3304C34.739 71.9574 34.197 72.565 33.6691 73.1885C33.2688 73.6614 32.8951 74.1556 32.4823 74.6144C32.082 75.059 31.641 75.4664 31.223 75.8968C30.7288 76.407 30.2594 76.9437 29.7439 77.4325C29.0938 78.0472 28.4066 78.6229 27.7388 79.218C27.4217 79.4996 27.1135 79.7937 26.7912 80.0718C26.3908 80.4189 25.987 80.7626 25.576 81.0956C24.9614 81.5951 24.3503 82.0981 23.7162 82.5711C23.3353 82.8545 22.912 83.0794 22.5152 83.3434C22.083 83.6321 21.6668 83.9492 21.231 84.2308C20.96 84.4061 20.6589 84.5337 20.3755 84.6913C20.2143 84.7817 20.0708 84.9074 19.9079 84.9907C19.3818 85.2617 18.8504 85.5221 18.3208 85.786C17.8124 86.0393 17.3094 86.3085 16.7922 86.5406C16.4733 86.6823 16.1297 86.7691 15.7967 86.8771C15.237 87.0613 14.6879 87.2863 14.1175 87.4191C12.6385 87.7645 11.147 88.0905 9.61308 87.9718C8.79474 87.9098 7.95692 87.8584 7.17754 87.6352C6.40349 87.4138 5.64537 87.0507 4.9581 86.6256C4.17342 86.1385 3.43124 85.5628 2.75815 84.9322C2.32595 84.5266 2.0142 83.9722 1.71839 83.4461C1.33048 82.7588 1.00633 82.0361 0.668013 81.3223C0.558192 81.092 0.462542 80.8511 0.404089 80.6049C0.055143 79.1188 -0.132615 77.5902 0.122452 76.097C0.292497 75.1068 0.590076 74.0671 1.37122 73.3001C1.97523 72.7049 2.53142 72.046 3.20274 71.5394C3.64026 71.21 4.24073 71.0948 4.77743 70.9035C5.26631 70.7299 5.75519 70.5227 6.26178 70.4448C6.90122 70.3456 7.55837 70.3633 8.20844 70.3296C8.20844 70.3402 8.20844 70.3509 8.20844 70.3615L8.20313 70.365Z" fill="white"/>
<path d="M52.0163 53.2931C52.7762 53.3073 53.2739 53.6102 53.6955 54.2832C54.0108 54.7881 54.5971 55.1388 55.0948 55.5125C55.6616 55.9376 56.3064 56.2565 56.6075 56.9721C56.7634 57.3423 56.5774 58.3236 56.2781 58.6017C55.7449 59.0959 55.2436 59.6255 54.7317 60.1409C54.4235 60.4509 54.1082 60.7574 53.8195 61.085C53.4741 61.4783 53.1499 61.8892 52.8222 62.2984C52.4822 62.7253 52.1332 63.1468 51.8215 63.595C51.5717 63.9528 51.3822 64.3513 51.1466 64.7198C50.9234 65.0705 50.6648 65.3999 50.4416 65.7507C50.2113 66.112 50.0023 66.4857 49.7916 66.8577C49.5383 67.3023 49.2832 67.7451 49.0458 68.1968C48.8227 68.6219 48.626 69.0612 48.4117 69.4934C48.1637 69.9947 47.9069 70.4907 47.6589 70.9919C47.5438 71.224 47.4393 71.4596 47.3365 71.6969C47.0744 72.3045 46.8104 72.9138 46.5554 73.5231C46.4438 73.7888 46.3623 74.0687 46.2419 74.3308C46.0665 74.7099 45.8876 75.0907 45.6697 75.445C45.3916 75.9002 44.6849 75.863 44.212 75.7266C43.4804 75.5176 43.4361 74.9189 43.2714 74.4212C43.1846 74.1537 43.4025 73.7729 43.5194 73.4576C43.6504 73.1015 43.8276 72.7615 43.9781 72.4125C44.2297 71.8262 44.4723 71.2346 44.7274 70.6501C44.9329 70.1754 45.149 69.7042 45.3633 69.2348C45.6042 68.7034 45.8539 68.1773 46.0878 67.6442C46.3145 67.127 46.5182 66.5973 46.7449 66.0801C46.8866 65.7577 47.0549 65.4478 47.2037 65.1289C47.317 64.8845 47.4286 64.6383 47.5243 64.3885C47.7315 63.85 47.8945 63.2903 48.1389 62.7696C48.5304 61.9335 48.913 61.1222 48.9785 60.1604C49.0317 59.3881 49.3222 58.6336 49.5011 57.8701C49.6853 57.0872 49.8128 56.2848 50.0572 55.5214C50.2999 54.7615 50.3513 53.8581 51.2033 53.4419C51.4406 53.3267 51.7418 53.3409 52.0145 53.2966L52.0163 53.2931ZM53.2544 57.6275C53.0277 57.4734 52.8577 57.3582 52.6876 57.2431C52.638 57.3689 52.5884 57.4964 52.5388 57.6222C52.4751 57.7798 52.4024 57.9357 52.3511 58.0969C52.3157 58.212 52.305 58.336 52.2962 58.4582C52.2962 58.4795 52.3865 58.5308 52.3918 58.5255C52.6398 58.274 52.8807 58.0189 53.2544 57.6275Z" fill="white"/>
<path d="M59.64 49.5148C58.9421 49.5148 58.2442 49.5326 57.5463 49.5113C56.2125 49.4723 55.8228 48.6983 56.1381 47.5221C56.2249 47.1962 56.7492 46.8207 57.1159 46.7711C57.9519 46.656 58.8145 46.7321 59.6648 46.7197C59.8171 46.718 59.9694 46.6666 60.1235 46.6365C60.0102 46.5125 59.9128 46.3672 59.7799 46.2698C59.1706 45.8181 58.5542 45.3718 57.9324 44.9378C57.7553 44.8138 57.5552 44.6881 57.3479 44.6491C56.6305 44.5145 55.9025 44.3303 55.1851 44.3497C54.9319 44.3568 54.5404 44.8723 54.4819 45.2017C54.3703 45.8341 54.3402 46.5267 54.4855 47.1448C54.6555 47.8675 55.008 48.5619 55.3623 49.2244C55.6439 49.7504 56.007 50.2464 56.4074 50.691C56.7528 51.0736 57.185 51.3871 57.6083 51.69C57.9856 51.9592 58.393 52.1931 58.8092 52.395C59.1369 52.5544 59.5355 52.5863 59.8366 52.7758C60.1767 52.9884 60.5841 53.2647 60.7116 53.6066C60.8923 54.0972 60.8445 54.6569 60.3007 55.0307C59.5691 55.5355 58.9013 55.5532 58.1503 55.1015C57.8563 54.9244 57.4825 54.8872 57.1761 54.7278C56.7811 54.5241 56.4056 54.2761 56.0442 54.0193C55.6386 53.7305 55.2259 53.4383 54.8716 53.0911C54.4979 52.7262 54.1879 52.294 53.8514 51.8902C53.6477 51.6457 53.4174 51.419 53.2456 51.1551C52.9799 50.7441 52.723 50.3208 52.5158 49.8762C52.2377 49.2775 52.0092 48.654 51.7612 48.0411C51.7435 47.9986 51.7205 47.9579 51.7152 47.9136C51.6248 47.2051 51.3893 46.4771 51.4831 45.7916C51.6018 44.9219 51.8356 43.9919 52.2979 43.2639C52.7301 42.582 53.32 41.8433 54.2818 41.7495C55.1728 41.6627 56.0726 41.5015 56.9529 41.5723C57.5374 41.6202 58.106 41.9957 58.6604 42.2649C59.2326 42.5412 59.8295 42.8052 60.3272 43.1878C61.2058 43.8644 62.2013 44.4312 62.7451 45.4781C62.9328 45.8394 63.1967 46.1653 63.4536 46.4859C63.8273 46.9482 63.8008 47.6444 63.5847 48.22C63.1507 49.3749 62.2686 49.5574 61.2147 49.5166C60.6904 49.4954 60.1643 49.5131 59.6382 49.5131L59.64 49.5148Z" fill="white"/>
<path d="M53.0524 35.2489C53.0524 34.6413 53.0826 34.0338 53.0454 33.428C52.9639 32.0942 52.8611 30.7622 52.7442 29.4301C52.6911 28.8297 52.599 28.231 52.4945 27.6358C52.3935 27.069 53.2012 26.2489 53.6848 26.1125C54.0178 26.0186 54.3561 25.8503 54.6856 25.8663C55.3303 25.8982 55.8369 26.1869 56.1451 26.8263C56.4091 27.3737 56.8041 27.8555 57.1087 28.3869C57.3532 28.812 57.5409 29.269 57.7641 29.7065C57.9997 30.1706 58.2459 30.6293 58.4886 31.0881C58.5966 31.2936 58.7312 31.4866 58.8145 31.6992C59.0253 32.2394 59.1971 32.7938 59.415 33.3306C59.6399 33.885 59.9127 34.4217 60.1447 34.9743C60.2705 35.2719 60.3856 35.5783 60.4512 35.8919C60.5769 36.4994 60.7133 37.1105 60.7523 37.7252C60.7877 38.2991 60.3573 38.5665 59.8861 38.8287C58.9934 39.3229 58.5435 38.6622 58.0758 38.1662C57.8721 37.9501 57.8651 37.5427 57.78 37.2186C57.6561 36.7421 57.5781 36.2497 57.4169 35.7856C57.2115 35.1957 56.9387 34.6307 56.7013 34.0515C56.5738 33.7415 56.4569 33.4262 56.3347 33.1145C56.2319 32.8488 56.1292 32.5831 56.0194 32.3191C56.0087 32.2943 55.9467 32.289 55.9078 32.2766C55.8777 32.367 55.8228 32.4591 55.8228 32.5494C55.8263 33.3376 55.8192 34.1259 55.8599 34.9123C55.8936 35.5518 55.9999 36.1877 56.0548 36.8253C56.138 37.7978 55.7023 38.5081 54.8751 38.9757C54.7228 39.0625 54.4659 39.0678 54.303 39.0023C54.032 38.8924 53.7326 38.7436 53.559 38.5205C53.3376 38.2353 53.1233 37.8704 53.0914 37.5232C53.0223 36.7686 53.0702 36.0034 53.0702 35.2418H53.0524V35.2489Z" fill="white"/>
<path d="M25.3301 60.0186C25.3301 59.5563 25.3921 59.0834 25.3141 58.6353C25.2256 58.1198 25.0183 57.6256 24.8518 57.1261C24.7491 56.8197 24.6552 56.5062 24.51 56.221C24.2903 55.7923 24.0388 55.3778 23.782 54.9704C23.4755 54.4851 23.1726 53.9962 22.8255 53.5428C22.5509 53.1832 22.202 52.8838 21.9061 52.5384C21.6546 52.2462 21.4456 51.9203 21.1959 51.6262C20.8983 51.2755 20.5529 50.962 20.2766 50.5953C19.9205 50.1242 19.6017 49.6229 19.2899 49.1216C19.0242 48.6947 18.7727 48.2554 18.5478 47.8055C18.4061 47.5239 18.2608 47.2192 18.2289 46.9146C18.112 45.7597 17.9526 44.5995 17.9827 43.4446C18.004 42.6847 18.2661 41.9124 18.523 41.1809C18.8294 40.3094 19.1996 39.4538 19.6265 38.6355C19.9719 37.9748 20.4448 37.3797 20.854 36.7526C21.1551 36.2903 21.435 35.8156 21.7414 35.3586C22.1276 34.7847 22.4995 34.2002 22.9335 33.6635C23.4259 33.0559 24.9298 33.0984 25.3921 33.7485C25.7215 34.2108 25.9288 34.7599 26.2033 35.2629C26.3999 35.6225 26.6125 35.9732 26.8268 36.3222C27.073 36.7225 27.2998 37.1388 27.5849 37.5107C27.8613 37.8685 28.1801 38.1998 28.5184 38.5027C29.0162 38.949 29.5351 39.3741 30.0648 39.7815C30.2649 39.9356 30.5129 40.0738 30.7573 40.1145C31.5704 40.2456 32.3923 40.4068 33.2088 40.4086C33.9917 40.4086 34.7906 40.2864 35.5523 40.0986C36.0411 39.9782 36.4946 39.6735 36.9321 39.3989C37.3448 39.1403 38.8044 39.3759 39.109 39.7532C39.4739 40.2049 39.7538 40.6814 39.6227 41.2677C39.5164 41.7406 39.3092 42.1923 39.1498 42.6546C39.0382 42.9787 38.9425 43.3064 38.8238 43.627C38.5635 44.3285 38.2907 45.0264 38.0285 45.7278C37.8195 46.2893 37.6388 46.8614 37.4086 47.4141C37.1836 47.9525 36.902 48.468 36.6629 49.0012C36.4485 49.4776 36.2732 49.9718 36.05 50.443C35.8339 50.8965 35.5771 51.3322 35.3397 51.775C35.221 51.9964 35.1077 52.2196 34.9925 52.441C34.6365 53.1301 34.2822 53.8226 33.9209 54.5099C33.6251 55.0732 33.3434 55.6453 33.0104 56.1873C32.6172 56.8285 32.1726 57.4361 31.7581 58.0649C31.4375 58.5502 31.1417 59.0497 30.814 59.528C30.6422 59.7795 30.4243 60.0009 30.2295 60.2383C29.8008 60.7573 29.3474 61.2568 28.9506 61.7988C28.4104 62.5357 27.8258 63.191 26.8038 62.9785C26.2742 62.8687 25.7198 62.6933 25.5922 62.0273C25.4665 61.3666 25.3407 60.7059 25.2167 60.0434C25.2521 60.0364 25.2893 60.0293 25.3248 60.0222L25.3301 60.0186ZM20.6326 44.8811C20.7902 45.3718 20.9851 46.0697 21.2384 46.7463C21.4084 47.2033 21.6192 47.6567 21.8831 48.0641C22.1807 48.5211 22.5544 48.9303 22.9016 49.3536C23.2417 49.7681 23.5871 50.1808 23.9378 50.5865C24.2248 50.9177 24.5507 51.2188 24.8129 51.5695C25.2203 52.1116 25.5922 52.6801 25.9695 53.2434C26.3131 53.7536 26.7329 54.2336 26.9614 54.7915C27.3299 55.686 27.5619 56.6372 27.8701 57.5565C27.9516 57.7974 28.1039 58.0135 28.2244 58.2403C28.3448 58.1092 28.4848 57.9905 28.584 57.8435C28.8514 57.4467 29.0994 57.0375 29.3616 56.6372C29.6609 56.1802 29.9744 55.7321 30.2667 55.2698C30.4296 55.0094 30.5501 54.7225 30.7095 54.4585C30.9185 54.1114 31.1577 53.7819 31.3614 53.4294C31.5881 53.0362 31.7865 52.627 32.0008 52.2267C32.2381 51.7821 32.495 51.3464 32.7182 50.8929C32.9396 50.443 33.1203 49.9754 33.3328 49.5219C33.5773 49.0029 33.8571 48.4981 34.0856 47.972C34.3212 47.4282 34.5072 46.8632 34.7268 46.3123C34.9784 45.6817 35.2405 45.0565 35.5062 44.4312C35.655 44.0805 35.8268 43.7404 35.9703 43.3897C36.0146 43.2816 36.0358 43.1364 35.9986 43.0301C35.9791 42.9716 35.8144 42.9203 35.7241 42.9345C35.2334 43.0124 34.7463 43.108 34.2574 43.2001C33.8872 43.2692 33.5188 43.3507 33.1486 43.4092C33.0317 43.4269 32.9042 43.395 32.7873 43.3667C32.6101 43.3224 32.4418 43.2303 32.2647 43.2125C31.8254 43.1718 31.3596 43.2409 30.9469 43.1187C30.3606 42.9469 29.8044 42.6581 29.2482 42.3924C28.7682 42.1639 28.2722 41.9425 27.8436 41.6343C27.3936 41.3102 26.988 40.9099 26.6107 40.5007C25.9855 39.8223 25.3744 39.1279 24.804 38.4052C24.5418 38.0722 24.4055 37.6436 24.1734 37.2822C24.1274 37.2096 23.8351 37.183 23.7802 37.245C23.5588 37.4948 23.3657 37.7764 23.201 38.0687C22.8821 38.6355 22.5739 39.2112 22.2905 39.7957C21.8459 40.7115 21.3588 41.6131 21.0187 42.5678C20.7867 43.2161 20.7761 43.9441 20.629 44.8776L20.6326 44.8811Z" fill="white"/>
<path d="M25.877 27.1025C25.877 26.812 25.8274 26.5126 25.8859 26.2345C26.0878 25.2639 26.4385 24.426 27.3933 23.8752C28.2506 23.381 29.1539 23.1613 30.0856 23.1631C30.7552 23.1631 31.423 23.4465 32.0907 23.6112C32.4539 23.7016 32.8152 23.799 33.173 23.907C33.8071 24.1001 34.4731 24.2294 35.0577 24.5235C35.7184 24.8529 36.3188 25.3117 36.9158 25.7545C37.4171 26.1265 37.9219 26.5109 38.3381 26.9714C38.8305 27.517 39.2397 28.1387 39.6648 28.7427C39.8898 29.0633 40.1059 29.3981 40.2671 29.7523C40.4584 30.1721 40.6426 30.6096 40.7294 31.0578C40.8658 31.7663 41.0181 32.4979 40.9791 33.2099C40.9313 34.0531 40.4761 34.7492 39.7658 35.2593C39.2344 35.6419 38.6481 35.9147 38.0122 35.7517C37.4029 35.5941 36.744 35.3886 36.2675 35.006C35.21 34.1558 34.2517 33.1833 33.2563 32.2587C32.9357 31.9611 32.5141 31.7061 32.3334 31.3359C32.1368 30.9356 31.7453 30.5742 32.0837 29.933C32.3618 29.4052 32.7249 29.1324 33.189 28.9978C33.46 28.9181 33.8975 29.0474 34.1242 29.2404C35.0364 30.0216 35.8973 30.8647 36.7758 31.6848C37.1903 32.071 37.5995 32.4642 38.0175 32.845C38.0494 32.8751 38.1362 32.845 38.1982 32.8415C38.1468 32.528 38.1185 32.2056 38.0352 31.9009C37.9484 31.5785 37.8439 31.2509 37.6845 30.9604C37.4011 30.4414 37.1301 29.8958 36.7457 29.4548C36.1754 28.8029 35.5395 28.1971 34.8752 27.6409C34.5298 27.3505 34.0675 27.1928 33.646 27.0015C33.2403 26.8191 32.8258 26.6508 32.4025 26.5144C31.9809 26.378 31.5487 26.2363 31.1112 26.192C30.5373 26.1336 29.9546 26.1637 29.3753 26.1637C28.8935 26.1637 28.6013 26.4099 28.6775 26.8917C28.7979 27.6339 28.9573 28.3743 29.1628 29.097C29.3151 29.6337 29.5401 30.1544 29.7827 30.6592C29.951 31.0135 30.2061 31.3253 30.4151 31.66C30.6578 32.0497 30.8792 32.4536 31.1396 32.8309C31.3167 33.0877 31.5292 33.3286 31.7577 33.5411C32.36 34.1009 32.2803 35.2593 31.593 35.7393C30.9323 36.1999 30.176 36.0529 29.6871 35.4081C29.2018 34.7651 28.6438 34.1735 28.1903 33.5093C27.8166 32.9637 27.5438 32.3491 27.2356 31.7592C26.9699 31.2491 26.706 30.7389 26.4669 30.2164C26.3376 29.9348 26.2331 29.6337 26.1711 29.3308C26.0223 28.5992 25.9071 27.8606 25.7778 27.1255C25.8115 27.1184 25.8434 27.1131 25.877 27.106V27.1025Z" fill="white"/>
<path d="M41.0234 20.3505C41.0234 21.1936 41.0217 22.035 41.0234 22.8782C41.0252 23.5158 40.6054 23.7656 40.0953 24.0136C39.493 24.3076 39.0555 24.0508 38.6942 23.6699C38.4621 23.4255 38.2691 23.0376 38.2567 22.7081C38.2035 21.1777 38.2478 19.6455 38.1982 18.1151C38.1752 17.3783 38.0406 16.6414 37.9201 15.9099C37.8936 15.7504 37.704 15.6176 37.5907 15.4723C37.4543 15.5839 37.2966 15.6778 37.185 15.8107C36.7404 16.3438 36.2976 16.8788 35.8814 17.4332C35.4704 17.9805 35.1215 18.5774 34.6893 19.1071C34.2482 19.6473 33.7895 20.1964 33.2457 20.6233C32.6541 21.0874 31.423 20.3558 31.3592 19.6066C31.2848 18.7067 31.8003 18.1488 32.3671 17.5784C32.6239 17.3198 32.7816 16.9673 33.0101 16.6786C33.4954 16.0586 34.0073 15.4582 34.4873 14.8364C34.8469 14.3706 35.1658 13.8729 35.5218 13.4035C35.7822 13.0616 36.078 12.7445 36.3525 12.4133C36.6147 12.0962 36.8892 11.7845 37.1248 11.448C37.433 11.0051 38.6658 10.8953 39.1034 11.2035C39.9217 11.7792 40.1644 12.5621 40.2317 13.5097C40.2742 14.1049 40.5328 14.6859 40.694 15.274C40.7082 15.3253 40.7188 15.3802 40.7223 15.4334C40.8499 17.0701 40.9774 18.7067 41.1049 20.3417C41.0784 20.3434 41.0518 20.347 41.0252 20.3487L41.0234 20.3505Z" fill="white"/>
</svg>
